# xmcd
#
# Track frame offsets:
#	150
#	9730
#	17852
#	30410
#	37041
#	42707
#	52230
#	60872
#	67606
#	73040
#	86244
#	96879
#	106746
#
# Disc length: 1569 seconds
#
# Revision: 1
# Processed by: cddbd v1.5.2PL0 Copyright (c) Steve Scherf et al.
# Submitted via: audiograbber 1.83.01
#
DISCID=aa061f0d
DTITLE=BANDA NORDESTINA - SAUDADE DE LUIZ GONZAGA
DYEAR=1900
DGENRE=FORRÓ
TTITLE0=A VIDA DE VIAJANTE
TTITLE1=RIACHO DO NAVIO
TTITLE2=RESPEITA JANUÁRIO
TTITLE3=O XOTE DAS MENINAS
TTITLE4=CINTURA FINA
TTITLE5=SABIÁ
TTITLE6=O CHEIRO DA CAROLINA
TTITLE7=PARAÍBA
TTITLE8=FORRÓ NO ESCURO
TTITLE9=ASA BRANCA
TTITLE10=BAIÃO
TTITLE11=JUAZEIRO
TTITLE12=PAGODE RUSSO
EXTD=
EXTT0=
EXTT1=
EXTT2=
EXTT3=
EXTT4=
EXTT5=
EXTT6=
EXTT7=
EXTT8=
EXTT9=
EXTT10=
EXTT11=
EXTT12=
PLAYORDER=
